<mxfile host="Electron" agent="Mozilla/5.0 (Windows NT 10.0; Win64; x64) AppleWebKit/537.36 (KHTML, like Gecko) draw.io/28.2.7 Chrome/138.0.7204.251 Electron/37.7.1 Safari/537.36" version="28.2.7">
  <diagram name="Page-1" id="8TIDWWbVEZXTzMkeg794">
    <mxGraphModel dx="1425" dy="828" grid="1" gridSize="2" guides="1" tooltips="1" connect="1" arrows="1" fold="1" page="1" pageScale="1" pageWidth="800" pageHeight="256" background="light-dark(#334743, #121212)" math="0" shadow="0" adaptiveColors="none">
      <root>
        <mxCell id="0" />
        <mxCell id="1" parent="0" />
        <mxCell id="fRU-HqgS-LtAF15UyHwC-10" value="" style="rounded=0;whiteSpace=wrap;html=1;strokeColor=none;fillColor=#A63446;" parent="1" vertex="1">
          <mxGeometry width="400" height="256" as="geometry" />
        </mxCell>
        <mxCell id="fRU-HqgS-LtAF15UyHwC-15" value="" style="verticalLabelPosition=bottom;verticalAlign=top;html=1;shape=mxgraph.basic.polygon;polyCoords=[[0.5,0],[0.5,0],[1,0.09],[1,0.91],[0.5,1],[0.5,1],[0,0.91],[0,0.09]];polyline=0;fillColor=#FFD585;strokeColor=none;" parent="1" vertex="1">
          <mxGeometry x="378" y="20" width="44" height="216" as="geometry" />
        </mxCell>
        <mxCell id="fRU-HqgS-LtAF15UyHwC-6" value="" style="verticalLabelPosition=bottom;verticalAlign=top;html=1;shape=mxgraph.basic.polygon;polyCoords=[[0.33,0],[0.56,0],[1,0.5],[1,0.5],[0.56,1],[0.33,1],[0.33,0.78],[0.33,0.25]];polyline=0;strokeColor=#FFD585;fillColor=#000000;strokeWidth=4;" parent="1" vertex="1">
          <mxGeometry x="294" y="40" width="106" height="178" as="geometry" />
        </mxCell>
        <mxCell id="fRU-HqgS-LtAF15UyHwC-7" value="" style="verticalLabelPosition=bottom;verticalAlign=top;html=1;shape=mxgraph.basic.polygon;polyCoords=[[0.33,0],[0.56,0],[1,0.5],[1,0.5],[0.56,1],[0.33,1],[0.33,0.78],[0.33,0.25]];polyline=0;strokeColor=#FFD585;fillColor=#000000;strokeWidth=4;direction=west;" parent="1" vertex="1">
          <mxGeometry x="400" y="40" width="106" height="176" as="geometry" />
        </mxCell>
        <mxCell id="fRU-HqgS-LtAF15UyHwC-11" value="" style="rounded=0;whiteSpace=wrap;html=1;strokeColor=none;fillColor=#000000;" parent="1" vertex="1">
          <mxGeometry x="380" y="104" width="40" height="48" as="geometry" />
        </mxCell>
        <mxCell id="fRU-HqgS-LtAF15UyHwC-14" value="" style="shape=switch;whiteSpace=wrap;html=1;strokeColor=default;fillColor=#000000;rotation=45;strokeWidth=1.5;" parent="1" vertex="1">
          <mxGeometry x="391" y="40" width="18" height="18" as="geometry" />
        </mxCell>
        <mxCell id="fRU-HqgS-LtAF15UyHwC-19" value="" style="shape=switch;whiteSpace=wrap;html=1;strokeColor=default;fillColor=#000000;rotation=45;strokeWidth=1.5;" parent="1" vertex="1">
          <mxGeometry x="391" y="200" width="18" height="18" as="geometry" />
        </mxCell>
        <mxCell id="fRU-HqgS-LtAF15UyHwC-20" value="" style="shape=switch;whiteSpace=wrap;html=1;strokeColor=#FFD585;fillColor=#FFD585;rotation=45;strokeWidth=1.5;" parent="1" vertex="1">
          <mxGeometry x="387" y="115" width="26" height="26" as="geometry" />
        </mxCell>
        <mxCell id="fRU-HqgS-LtAF15UyHwC-21" value="" style="shape=switch;whiteSpace=wrap;html=1;strokeColor=#FFD585;fillColor=#FFD585;rotation=45;strokeWidth=1.5;" parent="1" vertex="1">
          <mxGeometry x="435" y="119" width="18" height="18" as="geometry" />
        </mxCell>
        <mxCell id="fRU-HqgS-LtAF15UyHwC-22" value="" style="shape=switch;whiteSpace=wrap;html=1;strokeColor=#FFD585;fillColor=#FFD585;rotation=45;strokeWidth=1.5;" parent="1" vertex="1">
          <mxGeometry x="347" y="119" width="18" height="18" as="geometry" />
        </mxCell>
        <mxCell id="bvuFerMu_lM5-2CuSNIG-1" value="&lt;font face=&quot;MaquiW00-Heavy&quot; style=&quot;font-size: 64px;&quot;&gt;HELIOPAUSE&lt;/font&gt;" style="text;strokeColor=none;fillColor=none;html=1;fontSize=24;fontStyle=1;verticalAlign=middle;align=right;spacingRight=0;spacing=12;labelBorderColor=none;labelBackgroundColor=none;backgroundOutline=0;textShadow=0;shadowColor=#FFD585;" vertex="1" parent="1">
          <mxGeometry y="38" width="326" height="180" as="geometry" />
        </mxCell>
        <mxCell id="bvuFerMu_lM5-2CuSNIG-2" style="edgeStyle=orthogonalEdgeStyle;rounded=0;orthogonalLoop=1;jettySize=auto;html=1;exitX=0.5;exitY=1;exitDx=0;exitDy=0;" edge="1" parent="1" source="bvuFerMu_lM5-2CuSNIG-1" target="bvuFerMu_lM5-2CuSNIG-1">
          <mxGeometry relative="1" as="geometry" />
        </mxCell>
        <mxCell id="bvuFerMu_lM5-2CuSNIG-4" value="&lt;font style=&quot;font-size: 64px;&quot; face=&quot;MaquiW00-Heavy&quot;&gt;INNOVATIONS&lt;/font&gt;" style="text;strokeColor=none;fillColor=none;html=1;fontSize=24;fontStyle=1;verticalAlign=middle;align=left;spacingRight=0;spacing=12;labelBorderColor=none;labelBackgroundColor=none;backgroundOutline=0;" vertex="1" parent="1">
          <mxGeometry x="472" y="38" width="326" height="180" as="geometry" />
        </mxCell>
      </root>
    </mxGraphModel>
  </diagram>
</mxfile>
